<svg xmlns="http://www.w3.org/2000/svg" width="1270" height="449">
                                <g fill="#FCD34D" fill-rule="nonzero">
                                    <path d="M979.71 13.283A22.888 22.888 0 0 0 991.205.206c.125-.345 2.162 11.236 9.026 13.47 0 0-8.305 3.98-10.272 11.862.008.11-.47-6.26-10.249-12.255ZM1180.485 439.616a16.241 16.241 0 0 0 8.161-9.311c.088-.244 1.53 7.985 6.429 9.569 0 0-5.894 2.828-7.295 8.425-.02.074-.359-4.446-7.295-8.683ZM547.24 424.661a16.92 16.92 0 0 0 8.478-9.655c.087-.262 1.592 8.274 6.675 9.917 0 0-6.122 2.909-7.57 8.725-.036.095-.385-4.595-7.583-8.987Z"></path>
                                </g>
                            </svg>