<svg xmlns="http://www.w3.org/2000/svg" xmlns:xlink="http://www.w3.org/1999/xlink" width="500" zoomAndPan="magnify" viewBox="0 0 375 374.999991" height="500" preserveAspectRatio="xMidYMid meet" version="1.0"><defs><clipPath id="08382cf508"><path d="M 33.261719 109 L 132 109 L 132 312 L 33.261719 312 Z M 33.261719 109 " clip-rule="nonzero"/></clipPath><clipPath id="0f3eef4113"><path d="M 243 28 L 341.511719 28 L 341.511719 313 L 243 313 Z M 243 28 " clip-rule="nonzero"/></clipPath><clipPath id="380afebd70"><path d="M 175.894531 194.714844 L 217.6875 194.714844 L 217.6875 236.511719 L 175.894531 236.511719 Z M 175.894531 194.714844 " clip-rule="nonzero"/></clipPath><clipPath id="c02277c6b2"><path d="M 196.789062 194.714844 C 185.25 194.714844 175.894531 204.070312 175.894531 215.613281 C 175.894531 227.15625 185.25 236.511719 196.789062 236.511719 C 208.332031 236.511719 217.6875 227.15625 217.6875 215.613281 C 217.6875 204.070312 208.332031 194.714844 196.789062 194.714844 Z M 196.789062 194.714844 " clip-rule="nonzero"/></clipPath></defs><g clip-path="url(#08382cf508)"><path fill="#4e249e" d="M 115.167969 155.34375 C 113.265625 153.757812 53.605469 114.457031 47.726562 111.335938 C 40.339844 107.417969 34.042969 111.652344 33.546875 120.25 C 33.429688 122.257812 34.0625 218.257812 34.109375 224.734375 C 33.304688 237.378906 37.097656 248.351562 46.03125 257.445312 C 50.363281 261.890625 130.027344 312.007812 130.101562 311.847656 C 131.421875 310.65625 131.902344 205.164062 131.015625 199.234375 C 133.296875 181.871094 128.996094 166.875 115.167969 155.34375 Z M 115.167969 155.34375 " fill-opacity="1" fill-rule="nonzero"/></g><path fill="#893ead" d="M 235.859375 307.578125 C 235.972656 291.101562 236.222656 164.988281 236.15625 163.722656 C 235.585938 149.433594 229.78125 137.601562 217.941406 129.707031 C 197.539062 116.097656 152.617188 88.144531 151.121094 87.558594 C 149.398438 86.785156 147.753906 86.457031 146.238281 86.527344 C 144.859375 86.546875 143.648438 86.894531 142.613281 87.578125 C 139.898438 89.160156 138.078125 92.429688 137.820312 96.882812 C 137.722656 98.554688 138.070312 305.453125 137.984375 313.289062 C 137.949219 316.445312 138.609375 318.320312 141.765625 320.171875 C 153.898438 327.300781 165.8125 334.835938 177.546875 342.609375 C 184.425781 347.171875 190.683594 347.046875 197.460938 342.585938 C 207.578125 335.925781 217.632812 329.09375 228.238281 323.285156 C 235.074219 319.542969 237.847656 315.023438 235.859375 307.578125 Z M 235.859375 307.578125 " fill-opacity="1" fill-rule="nonzero"/><g clip-path="url(#0f3eef4113)"><path fill="#ca5eb3" d="M 341.03125 112.769531 C 341.199219 110.117188 341.214844 107.523438 341.035156 104.996094 C 341.035156 104.820312 341.035156 104.644531 341.035156 104.464844 C 340.101562 88.660156 332.589844 76.6875 319.550781 68.082031 C 305.140625 58.570312 290.835938 48.871094 276.0625 39.953125 C 270.019531 36.308594 264.195312 32.132812 257.4375 29.597656 C 257.398438 29.578125 257.34375 29.542969 257.304688 29.523438 C 255.25 28.429688 253.285156 27.992188 251.496094 28.082031 C 248.617188 27.902344 246.597656 28.945312 245.390625 31.453125 C 244.113281 33.207031 243.292969 35.574219 243.128906 38.433594 C 243.082031 39.210938 244.222656 294.339844 243.964844 311.375 C 245.351562 313.503906 246.789062 312.101562 248.035156 311.300781 C 267.269531 298.914062 286.480469 286.492188 305.695312 274.078125 C 324.175781 264.929688 339.050781 252.65625 340.898438 230.367188 C 341.648438 221.328125 341.03125 122.023438 341.03125 112.769531 Z M 341.03125 112.769531 " fill-opacity="1" fill-rule="nonzero"/></g><g clip-path="url(#380afebd70)"><g clip-path="url(#c02277c6b2)"><path fill="#893ead" d="M 175.894531 194.714844 L 217.6875 194.714844 L 217.6875 236.511719 L 175.894531 236.511719 Z M 175.894531 194.714844 " fill-opacity="1" fill-rule="nonzero"/></g></g></svg>